<?xml version="1.0" encoding="UTF-8"?>
<mxfile host="app.diagrams.net" modified="2021-05-15T06:04:10.111Z" agent="5.0 (Windows NT 10.0; Win64; x64) AppleWebKit/537.36 (KHTML, like Gecko) Chrome/90.0.4430.212 Safari/537.36" etag="LQvmzf5gN1Teq8pu-Fip" version="14.6.13" type="google">
  <diagram id="0KUSGJeiUolCT15waEBw" name="Page-1">
    <mxGraphModel dx="2249" dy="762" grid="1" gridSize="10" guides="1" tooltips="1" connect="1" arrows="1" fold="1" page="1" pageScale="1" pageWidth="827" pageHeight="1169" math="0" shadow="0">
      <root>
        <mxCell id="0" />
        <mxCell id="1" parent="0" />
        <mxCell id="2ZHwkfS_h1XtZg8dVkgi-41" value="ReturnBookService" style="swimlane;fontStyle=1;align=center;verticalAlign=top;childLayout=stackLayout;horizontal=1;startSize=26;horizontalStack=0;resizeParent=1;resizeParentMax=0;resizeLast=0;collapsible=1;marginBottom=0;" parent="1" vertex="1">
          <mxGeometry x="286" y="260" width="320" height="276" as="geometry" />
        </mxCell>
        <mxCell id="2ZHwkfS_h1XtZg8dVkgi-42" value="returnBookList : string" style="text;strokeColor=none;fillColor=none;align=left;verticalAlign=top;spacingLeft=4;spacingRight=4;overflow=hidden;rotatable=0;points=[[0,0.5],[1,0.5]];portConstraint=eastwest;" parent="2ZHwkfS_h1XtZg8dVkgi-41" vertex="1">
          <mxGeometry y="26" width="320" height="26" as="geometry" />
        </mxCell>
        <mxCell id="2ZHwkfS_h1XtZg8dVkgi-78" value="guestIdx : int" style="text;strokeColor=none;fillColor=none;align=left;verticalAlign=top;spacingLeft=4;spacingRight=4;overflow=hidden;rotatable=0;points=[[0,0.5],[1,0.5]];portConstraint=eastwest;" parent="2ZHwkfS_h1XtZg8dVkgi-41" vertex="1">
          <mxGeometry y="52" width="320" height="26" as="geometry" />
        </mxCell>
        <mxCell id="2ZHwkfS_h1XtZg8dVkgi-43" value="token : string" style="text;strokeColor=none;fillColor=none;align=left;verticalAlign=top;spacingLeft=4;spacingRight=4;overflow=hidden;rotatable=0;points=[[0,0.5],[1,0.5]];portConstraint=eastwest;" parent="2ZHwkfS_h1XtZg8dVkgi-41" vertex="1">
          <mxGeometry y="78" width="320" height="26" as="geometry" />
        </mxCell>
        <mxCell id="2ZHwkfS_h1XtZg8dVkgi-44" value="isResponseSuccess : boolean" style="text;strokeColor=none;fillColor=none;align=left;verticalAlign=top;spacingLeft=4;spacingRight=4;overflow=hidden;rotatable=0;points=[[0,0.5],[1,0.5]];portConstraint=eastwest;" parent="2ZHwkfS_h1XtZg8dVkgi-41" vertex="1">
          <mxGeometry y="104" width="320" height="26" as="geometry" />
        </mxCell>
        <mxCell id="2ZHwkfS_h1XtZg8dVkgi-45" value="responseCode : int" style="text;strokeColor=none;fillColor=none;align=left;verticalAlign=top;spacingLeft=4;spacingRight=4;overflow=hidden;rotatable=0;points=[[0,0.5],[1,0.5]];portConstraint=eastwest;" parent="2ZHwkfS_h1XtZg8dVkgi-41" vertex="1">
          <mxGeometry y="130" width="320" height="26" as="geometry" />
        </mxCell>
        <mxCell id="2ZHwkfS_h1XtZg8dVkgi-46" value="responseMessage : string" style="text;strokeColor=none;fillColor=none;align=left;verticalAlign=top;spacingLeft=4;spacingRight=4;overflow=hidden;rotatable=0;points=[[0,0.5],[1,0.5]];portConstraint=eastwest;" parent="2ZHwkfS_h1XtZg8dVkgi-41" vertex="1">
          <mxGeometry y="156" width="320" height="26" as="geometry" />
        </mxCell>
        <mxCell id="2ZHwkfS_h1XtZg8dVkgi-47" value="responseResult : string" style="text;strokeColor=none;fillColor=none;align=left;verticalAlign=top;spacingLeft=4;spacingRight=4;overflow=hidden;rotatable=0;points=[[0,0.5],[1,0.5]];portConstraint=eastwest;" parent="2ZHwkfS_h1XtZg8dVkgi-41" vertex="1">
          <mxGeometry y="182" width="320" height="26" as="geometry" />
        </mxCell>
        <mxCell id="2ZHwkfS_h1XtZg8dVkgi-48" value="" style="line;strokeWidth=1;fillColor=none;align=left;verticalAlign=middle;spacingTop=-1;spacingLeft=3;spacingRight=3;rotatable=0;labelPosition=right;points=[];portConstraint=eastwest;" parent="2ZHwkfS_h1XtZg8dVkgi-41" vertex="1">
          <mxGeometry y="208" width="320" height="8" as="geometry" />
        </mxCell>
        <mxCell id="2ZHwkfS_h1XtZg8dVkgi-49" value="encodeResponseByJSON(isResponseSuccess : boolean,&#xa;responseCode : int, responseMessage : string,&#xa;responseResult : string) : string" style="text;strokeColor=none;fillColor=none;align=left;verticalAlign=top;spacingLeft=4;spacingRight=4;overflow=hidden;rotatable=0;points=[[0,0.5],[1,0.5]];portConstraint=eastwest;" parent="2ZHwkfS_h1XtZg8dVkgi-41" vertex="1">
          <mxGeometry y="216" width="320" height="60" as="geometry" />
        </mxCell>
        <mxCell id="2ZHwkfS_h1XtZg8dVkgi-50" value="ReturnBookPDO" style="swimlane;fontStyle=1;align=center;verticalAlign=top;childLayout=stackLayout;horizontal=1;startSize=26;horizontalStack=0;resizeParent=1;resizeParentMax=0;resizeLast=0;collapsible=1;marginBottom=0;" parent="1" vertex="1">
          <mxGeometry x="286" y="630" width="324" height="216" as="geometry" />
        </mxCell>
        <mxCell id="2ZHwkfS_h1XtZg8dVkgi-51" value="returnBookList : string" style="text;strokeColor=none;fillColor=none;align=left;verticalAlign=top;spacingLeft=4;spacingRight=4;overflow=hidden;rotatable=0;points=[[0,0.5],[1,0.5]];portConstraint=eastwest;" parent="2ZHwkfS_h1XtZg8dVkgi-50" vertex="1">
          <mxGeometry y="26" width="324" height="26" as="geometry" />
        </mxCell>
        <mxCell id="2ZHwkfS_h1XtZg8dVkgi-80" value="guestIdx : int" style="text;strokeColor=none;fillColor=none;align=left;verticalAlign=top;spacingLeft=4;spacingRight=4;overflow=hidden;rotatable=0;points=[[0,0.5],[1,0.5]];portConstraint=eastwest;" parent="2ZHwkfS_h1XtZg8dVkgi-50" vertex="1">
          <mxGeometry y="52" width="324" height="26" as="geometry" />
        </mxCell>
        <mxCell id="2ZHwkfS_h1XtZg8dVkgi-52" value="query : string" style="text;strokeColor=none;fillColor=none;align=left;verticalAlign=top;spacingLeft=4;spacingRight=4;overflow=hidden;rotatable=0;points=[[0,0.5],[1,0.5]];portConstraint=eastwest;" parent="2ZHwkfS_h1XtZg8dVkgi-50" vertex="1">
          <mxGeometry y="78" width="324" height="26" as="geometry" />
        </mxCell>
        <mxCell id="2ZHwkfS_h1XtZg8dVkgi-53" value="pdo : string" style="text;strokeColor=none;fillColor=none;align=left;verticalAlign=top;spacingLeft=4;spacingRight=4;overflow=hidden;rotatable=0;points=[[0,0.5],[1,0.5]];portConstraint=eastwest;" parent="2ZHwkfS_h1XtZg8dVkgi-50" vertex="1">
          <mxGeometry y="104" width="324" height="26" as="geometry" />
        </mxCell>
        <mxCell id="2ZHwkfS_h1XtZg8dVkgi-54" value="statement : string" style="text;strokeColor=none;fillColor=none;align=left;verticalAlign=top;spacingLeft=4;spacingRight=4;overflow=hidden;rotatable=0;points=[[0,0.5],[1,0.5]];portConstraint=eastwest;" parent="2ZHwkfS_h1XtZg8dVkgi-50" vertex="1">
          <mxGeometry y="130" width="324" height="26" as="geometry" />
        </mxCell>
        <mxCell id="2ZHwkfS_h1XtZg8dVkgi-55" value="response : string" style="text;strokeColor=none;fillColor=none;align=left;verticalAlign=top;spacingLeft=4;spacingRight=4;overflow=hidden;rotatable=0;points=[[0,0.5],[1,0.5]];portConstraint=eastwest;" parent="2ZHwkfS_h1XtZg8dVkgi-50" vertex="1">
          <mxGeometry y="156" width="324" height="26" as="geometry" />
        </mxCell>
        <mxCell id="2ZHwkfS_h1XtZg8dVkgi-56" value="" style="line;strokeWidth=1;fillColor=none;align=left;verticalAlign=middle;spacingTop=-1;spacingLeft=3;spacingRight=3;rotatable=0;labelPosition=right;points=[];portConstraint=eastwest;" parent="2ZHwkfS_h1XtZg8dVkgi-50" vertex="1">
          <mxGeometry y="182" width="324" height="8" as="geometry" />
        </mxCell>
        <mxCell id="2ZHwkfS_h1XtZg8dVkgi-57" value="returnBooks(returnBookList : string, guestIdx : int) : void" style="text;strokeColor=none;fillColor=none;align=left;verticalAlign=top;spacingLeft=4;spacingRight=4;overflow=hidden;rotatable=0;points=[[0,0.5],[1,0.5]];portConstraint=eastwest;" parent="2ZHwkfS_h1XtZg8dVkgi-50" vertex="1">
          <mxGeometry y="190" width="324" height="26" as="geometry" />
        </mxCell>
        <mxCell id="2ZHwkfS_h1XtZg8dVkgi-58" value="" style="endArrow=classic;html=1;exitX=1;exitY=0.5;exitDx=0;exitDy=0;entryX=0;entryY=0.5;entryDx=0;entryDy=0;" parent="1" source="2ZHwkfS_h1XtZg8dVkgi-45" target="2ZHwkfS_h1XtZg8dVkgi-63" edge="1">
          <mxGeometry width="50" height="50" relative="1" as="geometry">
            <mxPoint x="666" y="320" as="sourcePoint" />
            <mxPoint x="786" y="320" as="targetPoint" />
          </mxGeometry>
        </mxCell>
        <mxCell id="2ZHwkfS_h1XtZg8dVkgi-59" value="1" style="text;html=1;strokeColor=none;fillColor=none;align=center;verticalAlign=middle;whiteSpace=wrap;rounded=0;" parent="1" vertex="1">
          <mxGeometry x="610" y="376" width="10" height="34" as="geometry" />
        </mxCell>
        <mxCell id="2ZHwkfS_h1XtZg8dVkgi-60" value="Authenticator" style="swimlane;fontStyle=1;align=center;verticalAlign=top;childLayout=stackLayout;horizontal=1;startSize=26;horizontalStack=0;resizeParent=1;resizeParentMax=0;resizeLast=0;collapsible=1;marginBottom=0;" parent="1" vertex="1">
          <mxGeometry x="726" y="330" width="300" height="112" as="geometry" />
        </mxCell>
        <mxCell id="2ZHwkfS_h1XtZg8dVkgi-61" value="decodedToken : string" style="text;strokeColor=none;fillColor=none;align=left;verticalAlign=top;spacingLeft=4;spacingRight=4;overflow=hidden;rotatable=0;points=[[0,0.5],[1,0.5]];portConstraint=eastwest;" parent="2ZHwkfS_h1XtZg8dVkgi-60" vertex="1">
          <mxGeometry y="26" width="300" height="26" as="geometry" />
        </mxCell>
        <mxCell id="2ZHwkfS_h1XtZg8dVkgi-62" value="" style="line;strokeWidth=1;fillColor=none;align=left;verticalAlign=middle;spacingTop=-1;spacingLeft=3;spacingRight=3;rotatable=0;labelPosition=right;points=[];portConstraint=eastwest;" parent="2ZHwkfS_h1XtZg8dVkgi-60" vertex="1">
          <mxGeometry y="52" width="300" height="8" as="geometry" />
        </mxCell>
        <mxCell id="2ZHwkfS_h1XtZg8dVkgi-63" value="isValidToken(token : string, key : string) : boolean" style="text;strokeColor=none;fillColor=none;align=left;verticalAlign=top;spacingLeft=4;spacingRight=4;overflow=hidden;rotatable=0;points=[[0,0.5],[1,0.5]];portConstraint=eastwest;" parent="2ZHwkfS_h1XtZg8dVkgi-60" vertex="1">
          <mxGeometry y="60" width="300" height="26" as="geometry" />
        </mxCell>
        <mxCell id="2ZHwkfS_h1XtZg8dVkgi-64" value="getDataByToken(token : string, key : string) : string" style="text;strokeColor=none;fillColor=none;align=left;verticalAlign=top;spacingLeft=4;spacingRight=4;overflow=hidden;rotatable=0;points=[[0,0.5],[1,0.5]];portConstraint=eastwest;" parent="2ZHwkfS_h1XtZg8dVkgi-60" vertex="1">
          <mxGeometry y="86" width="300" height="26" as="geometry" />
        </mxCell>
        <mxCell id="2ZHwkfS_h1XtZg8dVkgi-65" value="1" style="text;html=1;strokeColor=none;fillColor=none;align=center;verticalAlign=middle;whiteSpace=wrap;rounded=0;" parent="1" vertex="1">
          <mxGeometry x="706" y="383" width="10" height="20" as="geometry" />
        </mxCell>
        <mxCell id="2ZHwkfS_h1XtZg8dVkgi-66" value="" style="endArrow=classic;html=1;exitX=0.497;exitY=1;exitDx=0;exitDy=0;exitPerimeter=0;" parent="1" source="2ZHwkfS_h1XtZg8dVkgi-49" edge="1">
          <mxGeometry width="50" height="50" relative="1" as="geometry">
            <mxPoint x="445.5" y="536" as="sourcePoint" />
            <mxPoint x="445" y="630" as="targetPoint" />
          </mxGeometry>
        </mxCell>
        <mxCell id="2ZHwkfS_h1XtZg8dVkgi-67" value="1" style="text;html=1;strokeColor=none;fillColor=none;align=center;verticalAlign=middle;whiteSpace=wrap;rounded=0;" parent="1" vertex="1">
          <mxGeometry x="450" y="596" width="10" height="34" as="geometry" />
        </mxCell>
        <mxCell id="2ZHwkfS_h1XtZg8dVkgi-68" value="1" style="text;html=1;strokeColor=none;fillColor=none;align=center;verticalAlign=middle;whiteSpace=wrap;rounded=0;" parent="1" vertex="1">
          <mxGeometry x="450" y="530" width="10" height="34" as="geometry" />
        </mxCell>
        <mxCell id="VdcZlyJcnawryCKMZhM7-18" style="edgeStyle=orthogonalEdgeStyle;rounded=0;orthogonalLoop=1;jettySize=auto;html=1;exitX=0.5;exitY=1;exitDx=0;exitDy=0;endArrow=none;endFill=0;" edge="1" parent="1" source="2ZHwkfS_h1XtZg8dVkgi-69" target="VdcZlyJcnawryCKMZhM7-1">
          <mxGeometry relative="1" as="geometry" />
        </mxCell>
        <mxCell id="2ZHwkfS_h1XtZg8dVkgi-69" value="Controller" style="swimlane;fontStyle=1;align=center;verticalAlign=top;childLayout=stackLayout;horizontal=1;startSize=26;horizontalStack=0;resizeParent=1;resizeParentMax=0;resizeLast=0;collapsible=1;marginBottom=0;" parent="1" vertex="1">
          <mxGeometry x="-30" y="329" width="160" height="138" as="geometry" />
        </mxCell>
        <mxCell id="2ZHwkfS_h1XtZg8dVkgi-70" value="dispatcher : string" style="text;strokeColor=none;fillColor=none;align=left;verticalAlign=top;spacingLeft=4;spacingRight=4;overflow=hidden;rotatable=0;points=[[0,0.5],[1,0.5]];portConstraint=eastwest;" parent="2ZHwkfS_h1XtZg8dVkgi-69" vertex="1">
          <mxGeometry y="26" width="160" height="26" as="geometry" />
        </mxCell>
        <mxCell id="2ZHwkfS_h1XtZg8dVkgi-71" value="routeInfo : string" style="text;strokeColor=none;fillColor=none;align=left;verticalAlign=top;spacingLeft=4;spacingRight=4;overflow=hidden;rotatable=0;points=[[0,0.5],[1,0.5]];portConstraint=eastwest;" parent="2ZHwkfS_h1XtZg8dVkgi-69" vertex="1">
          <mxGeometry y="52" width="160" height="26" as="geometry" />
        </mxCell>
        <mxCell id="2ZHwkfS_h1XtZg8dVkgi-72" value="httpMethod : string" style="text;strokeColor=none;fillColor=none;align=left;verticalAlign=top;spacingLeft=4;spacingRight=4;overflow=hidden;rotatable=0;points=[[0,0.5],[1,0.5]];portConstraint=eastwest;" parent="2ZHwkfS_h1XtZg8dVkgi-69" vertex="1">
          <mxGeometry y="78" width="160" height="26" as="geometry" />
        </mxCell>
        <mxCell id="2ZHwkfS_h1XtZg8dVkgi-73" value="uri : string" style="text;strokeColor=none;fillColor=none;align=left;verticalAlign=top;spacingLeft=4;spacingRight=4;overflow=hidden;rotatable=0;points=[[0,0.5],[1,0.5]];portConstraint=eastwest;" parent="2ZHwkfS_h1XtZg8dVkgi-69" vertex="1">
          <mxGeometry y="104" width="160" height="26" as="geometry" />
        </mxCell>
        <mxCell id="2ZHwkfS_h1XtZg8dVkgi-74" value="" style="line;strokeWidth=1;fillColor=none;align=left;verticalAlign=middle;spacingTop=-1;spacingLeft=3;spacingRight=3;rotatable=0;labelPosition=right;points=[];portConstraint=eastwest;" parent="2ZHwkfS_h1XtZg8dVkgi-69" vertex="1">
          <mxGeometry y="130" width="160" height="8" as="geometry" />
        </mxCell>
        <mxCell id="2ZHwkfS_h1XtZg8dVkgi-75" value="" style="endArrow=classic;html=1;exitX=1;exitY=0.5;exitDx=0;exitDy=0;entryX=0;entryY=0.154;entryDx=0;entryDy=0;entryPerimeter=0;" parent="1" source="2ZHwkfS_h1XtZg8dVkgi-71" target="2ZHwkfS_h1XtZg8dVkgi-45" edge="1">
          <mxGeometry width="50" height="50" relative="1" as="geometry">
            <mxPoint x="166" y="403" as="sourcePoint" />
            <mxPoint x="256" y="394" as="targetPoint" />
          </mxGeometry>
        </mxCell>
        <mxCell id="2ZHwkfS_h1XtZg8dVkgi-76" value="1" style="text;html=1;strokeColor=none;fillColor=none;align=center;verticalAlign=middle;whiteSpace=wrap;rounded=0;" parent="1" vertex="1">
          <mxGeometry x="136" y="370" width="10" height="34" as="geometry" />
        </mxCell>
        <mxCell id="2ZHwkfS_h1XtZg8dVkgi-77" value="1" style="text;html=1;strokeColor=none;fillColor=none;align=center;verticalAlign=middle;whiteSpace=wrap;rounded=0;" parent="1" vertex="1">
          <mxGeometry x="266" y="369" width="10" height="34" as="geometry" />
        </mxCell>
        <mxCell id="VdcZlyJcnawryCKMZhM7-1" value="View Controller" style="swimlane;fontStyle=2;align=center;verticalAlign=top;childLayout=stackLayout;horizontal=1;startSize=26;horizontalStack=0;resizeParent=1;resizeLast=0;collapsible=1;marginBottom=0;rounded=0;shadow=0;strokeWidth=1;" vertex="1" parent="1">
          <mxGeometry x="-80" y="564" width="260" height="196" as="geometry">
            <mxRectangle x="230" y="140" width="160" height="26" as="alternateBounds" />
          </mxGeometry>
        </mxCell>
        <mxCell id="VdcZlyJcnawryCKMZhM7-11" value="- userIdx : int" style="text;align=left;verticalAlign=top;spacingLeft=4;spacingRight=4;overflow=hidden;rotatable=0;points=[[0,0.5],[1,0.5]];portConstraint=eastwest;rounded=0;shadow=0;html=0;" vertex="1" parent="VdcZlyJcnawryCKMZhM7-1">
          <mxGeometry y="26" width="260" height="26" as="geometry" />
        </mxCell>
        <mxCell id="VdcZlyJcnawryCKMZhM7-13" value="- returnResultPage : boolean" style="text;align=left;verticalAlign=top;spacingLeft=4;spacingRight=4;overflow=hidden;rotatable=0;points=[[0,0.5],[1,0.5]];portConstraint=eastwest;rounded=0;shadow=0;html=0;" vertex="1" parent="VdcZlyJcnawryCKMZhM7-1">
          <mxGeometry y="52" width="260" height="26" as="geometry" />
        </mxCell>
        <mxCell id="VdcZlyJcnawryCKMZhM7-12" value="- returnBookList : List&lt;String&gt;" style="text;align=left;verticalAlign=top;spacingLeft=4;spacingRight=4;overflow=hidden;rotatable=0;points=[[0,0.5],[1,0.5]];portConstraint=eastwest;rounded=0;shadow=0;html=0;" vertex="1" parent="VdcZlyJcnawryCKMZhM7-1">
          <mxGeometry y="78" width="260" height="26" as="geometry" />
        </mxCell>
        <mxCell id="VdcZlyJcnawryCKMZhM7-4" value="" style="line;html=1;strokeWidth=1;align=left;verticalAlign=middle;spacingTop=-1;spacingLeft=3;spacingRight=3;rotatable=0;labelPosition=right;points=[];portConstraint=eastwest;" vertex="1" parent="VdcZlyJcnawryCKMZhM7-1">
          <mxGeometry y="104" width="260" height="8" as="geometry" />
        </mxCell>
        <mxCell id="VdcZlyJcnawryCKMZhM7-7" value="+ alert (message)" style="text;align=left;verticalAlign=top;spacingLeft=4;spacingRight=4;overflow=hidden;rotatable=0;points=[[0,0.5],[1,0.5]];portConstraint=eastwest;rounded=0;shadow=0;html=0;" vertex="1" parent="VdcZlyJcnawryCKMZhM7-1">
          <mxGeometry y="112" width="260" height="26" as="geometry" />
        </mxCell>
        <mxCell id="VdcZlyJcnawryCKMZhM7-6" value="+ constructor (response)" style="text;align=left;verticalAlign=top;spacingLeft=4;spacingRight=4;overflow=hidden;rotatable=0;points=[[0,0.5],[1,0.5]];portConstraint=eastwest;rounded=0;shadow=0;html=0;" vertex="1" parent="VdcZlyJcnawryCKMZhM7-1">
          <mxGeometry y="138" width="260" height="26" as="geometry" />
        </mxCell>
        <mxCell id="VdcZlyJcnawryCKMZhM7-5" value="+ render( view : Component)" style="text;align=left;verticalAlign=top;spacingLeft=4;spacingRight=4;overflow=hidden;rotatable=0;points=[[0,0.5],[1,0.5]];portConstraint=eastwest;rounded=0;shadow=0;html=0;" vertex="1" parent="VdcZlyJcnawryCKMZhM7-1">
          <mxGeometry y="164" width="260" height="26" as="geometry" />
        </mxCell>
        <mxCell id="VdcZlyJcnawryCKMZhM7-10" value="Return Result View" style="swimlane;fontStyle=2;align=center;verticalAlign=top;childLayout=stackLayout;horizontal=1;startSize=30;horizontalStack=0;resizeParent=1;resizeLast=0;collapsible=1;marginBottom=0;rounded=0;shadow=0;strokeWidth=1;" vertex="1" parent="1">
          <mxGeometry x="-50" y="840" width="200" height="70" as="geometry">
            <mxRectangle x="230" y="140" width="160" height="26" as="alternateBounds" />
          </mxGeometry>
        </mxCell>
        <mxCell id="VdcZlyJcnawryCKMZhM7-16" value="" style="endArrow=classic;html=1;" edge="1" parent="VdcZlyJcnawryCKMZhM7-10">
          <mxGeometry width="50" height="50" relative="1" as="geometry">
            <mxPoint x="100" y="-80" as="sourcePoint" />
            <mxPoint x="100" as="targetPoint" />
          </mxGeometry>
        </mxCell>
        <mxCell id="VdcZlyJcnawryCKMZhM7-14" value="" style="line;html=1;strokeWidth=1;align=left;verticalAlign=middle;spacingTop=-1;spacingLeft=3;spacingRight=3;rotatable=0;labelPosition=right;points=[];portConstraint=eastwest;" vertex="1" parent="VdcZlyJcnawryCKMZhM7-10">
          <mxGeometry y="30" width="200" height="8" as="geometry" />
        </mxCell>
        <mxCell id="VdcZlyJcnawryCKMZhM7-15" value="+ constructor (response)" style="text;align=left;verticalAlign=top;spacingLeft=4;spacingRight=4;overflow=hidden;rotatable=0;points=[[0,0.5],[1,0.5]];portConstraint=eastwest;rounded=0;shadow=0;html=0;" vertex="1" parent="VdcZlyJcnawryCKMZhM7-10">
          <mxGeometry y="38" width="200" height="26" as="geometry" />
        </mxCell>
      </root>
    </mxGraphModel>
  </diagram>
</mxfile>
